<?xml version="1.0" standalone="no"?>
<!DOCTYPE svg PUBLIC "-//W3C//DTD SVG 20010904//EN"
 "http://www.w3.org/TR/2001/REC-SVG-20010904/DTD/svg10.dtd">
<svg version="1.0" xmlns="http://www.w3.org/2000/svg"
 width="385.000000pt" height="385.000000pt" viewBox="0 0 385.000000 385.000000"
 preserveAspectRatio="xMidYMid meet">
<metadata>
Created by potrace 1.11, written by Peter Selinger 2001-2013
</metadata>
<g transform="translate(0.000000,385.000000) scale(0.100000,-0.100000)"
fill="#000000" stroke="none">
<path d="M0 1925 l0 -1925 1925 0 1925 0 0 1925 0 1925 -1925 0 -1925 0 0
-1925z m1120 1378 c-1 -116 -4 -163 -14 -175 -12 -16 -33 -18 -175 -18 l-161
0 0 175 0 175 175 0 175 0 0 -157z m1540 0 c-1 -116 -4 -163 -14 -175 -12 -16
-33 -18 -175 -18 l-161 0 0 175 0 175 175 0 175 0 0 -157z m-1922 -400 l-3
-178 -170 0 -170 0 -3 159 c-2 136 0 161 13 169 8 4 13 12 10 18 -4 5 59 9
160 9 l165 0 -2 -177z m362 162 c0 -8 5 -15 10 -15 6 0 10 -60 10 -160 l0
-160 -175 0 -175 0 0 175 0 175 165 0 c140 0 165 -2 165 -15z m408 -162 l-3
-178 -170 0 -170 0 -3 159 c-2 136 0 161 13 169 8 4 13 12 10 18 -4 5 59 9
160 9 l165 0 -2 -177z m770 0 l-3 -178 -170 0 -170 0 -3 157 c-3 209 -16 196
191 197 l157 1 -2 -177z m362 162 c0 -8 5 -15 10 -15 6 0 10 -60 10 -160 l0
-160 -175 0 -175 0 0 175 0 175 165 0 c140 0 165 -2 165 -15z m408 -162 l-3
-178 -170 0 -170 0 -3 159 c-2 136 0 161 13 169 8 4 13 12 10 18 -4 5 59 9
160 9 l165 0 -2 -177z m-1928 -375 c-1 -111 -4 -158 -14 -170 -12 -16 -33 -18
-175 -18 l-161 0 0 170 0 170 175 0 175 0 0 -152z m1540 0 c-1 -111 -4 -158
-14 -170 -12 -16 -33 -18 -175 -18 l-161 0 0 170 0 170 175 0 175 0 0 -152z
m-1227 -225 c-46 -2 -120 -2 -165 0 -46 1 -9 3 82 3 91 0 128 -2 83 -3z m1540
0 c-46 -2 -120 -2 -165 0 -46 1 -9 3 82 3 91 0 128 -2 83 -3z m770 0 c-46 -2
-120 -2 -165 0 -46 1 -9 3 82 3 91 0 128 -2 83 -3z"/>
</g>
</svg>
